<svg width="640" height="480" viewBox="0 0 640 480" fill="none" xmlns="http://www.w3.org/2000/svg">
  <defs>
    <linearGradient id="grad1" x1="0" y1="0" x2="1" y2="1">
      <stop offset="0%" stop-color="#37D8A7" stop-opacity="0.85"/>
      <stop offset="100%" stop-color="#7C3AED" stop-opacity="0.9"/>
    </linearGradient>
    <linearGradient id="grad2" x1="0" y1="1" x2="1" y2="0">
      <stop offset="0%" stop-color="#11192E" stop-opacity="0.2"/>
      <stop offset="100%" stop-color="#37D8A7" stop-opacity="0.3"/>
    </linearGradient>
    <filter id="shadow" x="-20" y="-20" width="680" height="520" filterUnits="userSpaceOnUse">
      <feDropShadow dx="0" dy="20" stdDeviation="25" flood-color="#000" flood-opacity="0.35"/>
    </filter>
  </defs>
  <rect x="28" y="36" width="584" height="408" rx="24" fill="#0F172A" stroke="#1F2C46" stroke-width="2"/>
  <rect x="60" y="80" width="520" height="320" rx="20" fill="#11192E" stroke="#1F2C46" stroke-width="1.5" filter="url(#shadow)"/>
  <rect x="92" y="120" width="456" height="56" rx="14" fill="url(#grad1)" opacity="0.18"/>
  <rect x="92" y="208" width="216" height="160" rx="14" fill="#151F36" stroke="#1F2C46"/>
  <rect x="332" y="208" width="216" height="160" rx="14" fill="#151F36" stroke="#1F2C46"/>
  <circle cx="120" cy="92" r="6" fill="#37D8A7"/>
  <circle cx="140" cy="92" r="6" fill="#7C3AED"/>
  <circle cx="160" cy="92" r="6" fill="#6EE7B7"/>
  <g stroke="#37D8A7" stroke-width="2.2" stroke-linecap="round">
    <path d="M130 248H260"/>
    <path d="M130 276H260" opacity="0.8"/>
    <path d="M130 304H220" opacity="0.6"/>
  </g>
  <g stroke="#7C3AED" stroke-width="2.2" stroke-linecap="round">
    <path d="M372 248H512"/>
    <path d="M372 276H472" opacity="0.8"/>
    <path d="M372 304H460" opacity="0.6"/>
  </g>
  <rect x="180" y="152" width="280" height="16" rx="8" fill="#37D8A7" opacity="0.9"/>
  <rect x="220" y="180" width="200" height="10" rx="5" fill="#7C3AED" opacity="0.9"/>
  <rect x="132" y="348" width="96" height="12" rx="6" fill="#37D8A7" opacity="0.8"/>
  <rect x="404" y="348" width="96" height="12" rx="6" fill="#7C3AED" opacity="0.8"/>
  <path d="M92 120L548 120" stroke="url(#grad1)" stroke-width="2" opacity="0.45"/>
  <path d="M92 368L548 368" stroke="url(#grad2)" stroke-width="2" opacity="0.4"/>
  <rect x="268" y="248" width="36" height="96" rx="8" fill="url(#grad1)" opacity="0.9"/>
  <rect x="308" y="248" width="36" height="96" rx="8" fill="url(#grad2)" opacity="0.9"/>
</svg>
