<svg width="240" height="240" viewBox="0 0 64 64" fill="none" xmlns="http://www.w3.org/2000/svg">
  <defs>
    <linearGradient id="sparkGradient" x1="10" y1="12" x2="54" y2="52" gradientUnits="userSpaceOnUse">
      <stop offset="0" stop-color="#37D8A7"/>
      <stop offset="1" stop-color="#7C3AED"/>
    </linearGradient>
    <linearGradient id="frameGradient" x1="8" y1="8" x2="56" y2="56" gradientUnits="userSpaceOnUse">
      <stop offset="0" stop-color="#37D8A7" stop-opacity="0.8"/>
      <stop offset="1" stop-color="#7C3AED" stop-opacity="0.85"/>
    </linearGradient>
  </defs>
  <rect x="3" y="3" width="58" height="58" rx="16" fill="#0F172A" stroke="url(#frameGradient)" stroke-width="3"/>
  <path d="M29 10L18 32h11l-4 18 20-26H35l6-14H29Z" fill="url(#sparkGradient)"/>
  <path d="M19 46c0-4.418 3.582-8 8-8h6.5a6.5 6.5 0 0 1 0 13H19V46Z" fill="#0F172A"/>
  <path d="M37 24c0-4.418 3.582-8 8-8h6v6h-6c-1.105 0-2 .895-2 2v4c0 1.105.895 2 2 2h4v6h-4c-6.627 0-12-5.373-12-12Z" fill="url(#sparkGradient)"/>
</svg>
